<svg version="1.1" id="Layer_1" xmlns="http://www.w3.org/2000/svg" xmlns:xlink="http://www.w3.org/1999/xlink" x="0px" y="0px"
	 width="100%" viewBox="0 0 314 112" enable-background="new 0 0 314 112" xml:space="preserve">
<path fill="#F3F3F3" opacity="1.000000" stroke="none" 
	d="
M208.000000,113.000000 
	C138.666687,113.000000 69.833374,113.000000 1.000046,113.000000 
	C1.000031,75.666695 1.000031,38.333397 1.000015,1.000071 
	C105.666603,1.000047 210.333206,1.000047 314.999878,1.000024 
	C314.999908,38.333260 314.999908,75.666519 314.999939,112.999893 
	C279.500000,113.000000 244.000000,113.000000 208.000000,113.000000 
M87.441917,26.799274 
	C78.974602,40.877544 70.418602,54.903568 62.079357,69.057297 
	C58.216579,75.613388 60.030495,82.225647 66.215263,85.760048 
	C72.069893,89.105782 78.592537,87.265099 82.407837,80.894852 
	C90.000946,68.216972 97.490768,55.476490 104.930710,42.707951 
	C108.283371,36.954075 107.799789,31.542433 103.868637,27.584030 
	C99.398376,23.082781 94.115669,22.643751 87.441917,26.799274 
M193.369507,36.861877 
	C195.112030,36.861877 196.854553,36.861877 199.020233,36.861877 
	C199.020233,54.354034 199.020233,71.084633 199.020233,87.794235 
	C201.558060,87.794235 203.657486,87.794235 206.161926,87.794235 
	C206.161926,70.846024 206.161926,54.102753 206.161926,36.776596 
	C211.611084,36.776596 216.667328,36.776596 221.955811,36.776596 
	C221.852264,34.437267 221.775406,32.700939 221.706680,31.148161 
	C195.266266,31.148161 169.360718,31.148161 143.176514,31.148161 
	C143.286804,33.236393 143.377686,34.957291 143.488327,37.052109 
	C148.923752,37.052109 153.839539,37.052109 159.096069,37.052109 
	C159.096069,54.215370 159.096069,70.974716 159.096069,87.723755 
	C161.688660,87.723755 163.916504,87.723755 166.568527,87.723755 
	C166.568527,70.705566 166.568527,53.964283 166.568527,36.861877 
	C175.462997,36.861877 183.931137,36.861877 193.369507,36.861877 
M255.380966,44.639404 
	C257.812592,44.639404 260.244232,44.639404 262.729462,44.639404 
	C262.729462,43.756283 262.834900,43.239296 262.713989,42.782177 
	C260.005707,32.543297 248.775482,27.431189 236.812332,30.972546 
	C229.609390,33.104786 225.267014,38.384567 225.023941,45.305717 
	C224.766174,52.645855 228.190048,57.353611 235.957306,60.009686 
	C240.507492,61.565659 245.229614,62.648544 249.708496,64.374680 
	C253.927200,66.000534 256.548126,69.089157 255.883865,74.019363 
	C255.303253,78.328842 251.801132,81.414856 246.925323,82.013634 
	C239.375366,82.940819 236.133926,80.967972 232.035110,72.991226 
	C229.722626,72.991226 227.442947,72.991226 223.571243,72.991226 
	C225.697983,76.862671 226.846054,80.380569 229.130859,82.844276 
	C236.012711,90.264908 250.795303,90.529778 258.390320,83.788284 
	C263.141022,79.571480 265.519043,71.909683 262.301544,66.580032 
	C260.176727,63.060375 256.224396,60.190029 252.464462,58.228653 
	C247.966522,55.882282 242.725662,55.008011 237.948547,53.134163 
	C233.907410,51.548992 232.218796,48.286568 232.903656,43.914684 
	C233.561478,39.715439 236.285629,37.661823 240.210220,36.816486 
	C246.955200,35.363655 251.564178,37.638802 255.380966,44.639404 
M57.394875,28.210430 
	C53.559273,23.739532 48.752888,22.856953 43.457813,24.839745 
	C38.847301,26.566195 36.427040,30.198143 35.987015,35.072380 
	C35.501289,40.452808 37.829006,44.388340 42.483208,46.963943 
	C47.046574,49.489273 53.356220,48.345249 57.091885,44.405281 
	C60.912388,40.375820 61.202354,34.613064 57.394875,28.210430 
M131.212479,64.499893 
	C131.212479,72.273163 131.212479,80.046425 131.212479,87.739212 
	C134.105240,87.739212 136.360336,87.739212 138.706055,87.739212 
	C138.706055,68.694496 138.706055,49.943562 138.706055,31.141216 
	C136.112686,31.141216 133.732208,31.141216 131.212494,31.141216 
	C131.212494,42.181046 131.212494,52.840481 131.212479,64.499893 
z"/>
<path fill="#1D19FF" opacity="1.000000" stroke="none" 
	d="
M87.711845,26.531494 
	C94.115669,22.643751 99.398376,23.082781 103.868637,27.584030 
	C107.799789,31.542433 108.283371,36.954075 104.930710,42.707951 
	C97.490768,55.476490 90.000946,68.216972 82.407837,80.894852 
	C78.592537,87.265099 72.069893,89.105782 66.215263,85.760048 
	C60.030495,82.225647 58.216579,75.613388 62.079357,69.057297 
	C70.418602,54.903568 78.974602,40.877544 87.711845,26.531494 
z"/>
<path fill="#040404" opacity="1.000000" stroke="none" 
	d="
M192.884399,36.861877 
	C183.931137,36.861877 175.462997,36.861877 166.568527,36.861877 
	C166.568527,53.964283 166.568527,70.705566 166.568527,87.723755 
	C163.916504,87.723755 161.688660,87.723755 159.096069,87.723755 
	C159.096069,70.974716 159.096069,54.215370 159.096069,37.052109 
	C153.839539,37.052109 148.923752,37.052109 143.488327,37.052109 
	C143.377686,34.957291 143.286804,33.236393 143.176514,31.148161 
	C169.360718,31.148161 195.266266,31.148161 221.706680,31.148161 
	C221.775406,32.700939 221.852264,34.437267 221.955811,36.776596 
	C216.667328,36.776596 211.611084,36.776596 206.161926,36.776596 
	C206.161926,54.102753 206.161926,70.846024 206.161926,87.794235 
	C203.657486,87.794235 201.558060,87.794235 199.020233,87.794235 
	C199.020233,71.084633 199.020233,54.354034 199.020233,36.861877 
	C196.854553,36.861877 195.112030,36.861877 192.884399,36.861877 
z"/>
<path fill="#0A0A0A" opacity="1.000000" stroke="none" 
	d="
M255.104874,44.349407 
	C251.564178,37.638802 246.955200,35.363655 240.210220,36.816486 
	C236.285629,37.661823 233.561478,39.715439 232.903656,43.914684 
	C232.218796,48.286568 233.907410,51.548992 237.948547,53.134163 
	C242.725662,55.008011 247.966522,55.882282 252.464462,58.228653 
	C256.224396,60.190029 260.176727,63.060375 262.301544,66.580032 
	C265.519043,71.909683 263.141022,79.571480 258.390320,83.788284 
	C250.795303,90.529778 236.012711,90.264908 229.130859,82.844276 
	C226.846054,80.380569 225.697983,76.862671 223.571243,72.991226 
	C227.442947,72.991226 229.722626,72.991226 232.035110,72.991226 
	C236.133926,80.967972 239.375366,82.940819 246.925323,82.013634 
	C251.801132,81.414856 255.303253,78.328842 255.883865,74.019363 
	C256.548126,69.089157 253.927200,66.000534 249.708496,64.374680 
	C245.229614,62.648544 240.507492,61.565659 235.957306,60.009686 
	C228.190048,57.353611 224.766174,52.645855 225.023941,45.305717 
	C225.267014,38.384567 229.609390,33.104786 236.812332,30.972546 
	C248.775482,27.431189 260.005707,32.543297 262.713989,42.782177 
	C262.834900,43.239296 262.729462,43.756283 262.729462,44.639404 
	C260.244232,44.639404 257.812592,44.639404 255.104874,44.349407 
z"/>
<path fill="#1F1BFF" opacity="1.000000" stroke="none" 
	d="
M57.635742,28.510040 
	C61.202354,34.613064 60.912388,40.375820 57.091885,44.405281 
	C53.356220,48.345249 47.046574,49.489273 42.483208,46.963943 
	C37.829006,44.388340 35.501289,40.452808 35.987015,35.072380 
	C36.427040,30.198143 38.847301,26.566195 43.457813,24.839745 
	C48.752888,22.856953 53.559273,23.739532 57.635742,28.510040 
z"/>
<path fill="#111111" opacity="1.000000" stroke="none" 
	d="
M131.212494,63.999905 
	C131.212494,52.840481 131.212494,42.181046 131.212494,31.141216 
	C133.732208,31.141216 136.112686,31.141216 138.706055,31.141216 
	C138.706055,49.943562 138.706055,68.694496 138.706055,87.739212 
	C136.360336,87.739212 134.105240,87.739212 131.212479,87.739212 
	C131.212479,80.046425 131.212479,72.273163 131.212494,63.999905 
z"/>
</svg>