<svg version="1.1" id="Layer_1" xmlns="http://www.w3.org/2000/svg" xmlns:xlink="http://www.w3.org/1999/xlink" x="0px" y="0px"
	 width="100%" viewBox="0 0 314 112" enable-background="new 0 0 314 112" xml:space="preserve">
<path fill="#000000" opacity="1.000000" stroke="none" 
	d="
M205.000000,113.000000 
	C136.666687,113.000000 68.833374,113.000000 1.000046,113.000000 
	C1.000030,75.666695 1.000030,38.333397 1.000015,1.000071 
	C105.666603,1.000047 210.333206,1.000047 314.999878,1.000023 
	C314.999908,38.333260 314.999908,75.666519 314.999939,112.999893 
	C278.500000,113.000000 242.000000,113.000000 205.000000,113.000000 
M87.014366,26.488718 
	C78.670631,40.653996 70.291801,54.798771 61.999191,68.993912 
	C58.311703,75.306084 59.635201,82.971252 64.750572,85.926056 
	C70.381660,89.178780 79.668045,86.817139 82.939873,81.309227 
	C90.261223,68.984200 97.740341,56.748615 104.800148,44.275639 
	C106.466019,41.332447 107.668655,37.533192 107.453880,34.233887 
	C106.874794,25.338110 93.860374,20.202866 87.014366,26.488718 
M60.996284,36.445076 
	C60.510456,31.211889 58.332207,27.062080 53.253220,25.001549 
	C48.196133,22.949907 42.997650,23.236826 38.944328,26.775970 
	C34.634960,30.538685 35.574429,35.967987 36.507439,40.995892 
	C37.431114,45.973541 41.281147,48.234367 45.620968,48.476933 
	C55.383049,49.022560 57.816910,46.946228 60.996284,36.445076 
M178.500107,30.998594 
	C192.776855,30.998594 207.053589,30.998594 221.330338,30.998594 
	C221.326782,30.772438 221.323242,30.546282 221.319702,30.320126 
	C195.427185,30.320126 169.534668,30.320126 143.642151,30.320126 
	C143.641739,30.546282 143.641327,30.772438 143.640930,30.998594 
	C154.927307,30.998594 166.213684,30.998594 178.500107,30.998594 
M131.999420,82.224922 
	C131.999420,65.452263 131.999420,48.679600 131.999420,31.906939 
	C131.774109,31.909988 131.548798,31.913038 131.323486,31.916088 
	C131.323486,50.293839 131.323486,68.671585 131.323486,87.049339 
	C131.548798,87.053650 131.774109,87.057961 131.999420,87.062263 
	C131.999420,85.753693 131.999420,84.445122 131.999420,82.224922 
M138.000610,52.500183 
	C138.000610,63.966877 138.000610,75.433571 138.000610,86.900261 
	C138.227310,86.895782 138.453995,86.891304 138.680695,86.886826 
	C138.680695,68.627190 138.680695,50.367561 138.680695,32.107929 
	C138.453995,32.106804 138.227310,32.105675 138.000610,32.104546 
	C138.000610,38.569805 138.000610,45.035069 138.000610,52.500183 
M167.001007,41.949532 
	C167.001007,40.404419 167.001007,38.859306 167.001007,37.314194 
	C166.780609,37.339554 166.560211,37.364910 166.339813,37.390270 
	C166.339813,53.963825 166.339813,70.537376 166.339813,87.110931 
	C166.560318,87.111038 166.780838,87.111145 167.001343,87.111252 
	C167.001343,72.358124 167.001343,57.604988 167.001007,41.949532 
M198.998657,54.501839 
	C198.998657,48.697701 198.998657,42.893562 198.998657,37.089428 
	C198.665222,37.107014 198.331787,37.124603 197.998352,37.142189 
	C197.998352,53.885754 197.998352,70.629318 197.998352,87.372879 
	C198.332077,87.372803 198.665817,87.372734 198.999542,87.372658 
	C198.999542,76.748741 198.999542,66.124825 198.998657,54.501839 
M158.000259,68.499039 
	C158.000259,74.455177 158.000259,80.411316 158.000259,86.367455 
	C158.226608,86.359161 158.452942,86.350868 158.679291,86.342567 
	C158.679291,71.445290 158.679291,56.548012 158.679291,41.650734 
	C158.452942,41.650410 158.226608,41.650082 158.000259,41.649757 
	C158.000259,50.266304 158.000259,58.882851 158.000259,68.499039 
z"/>
<path fill="#1D19FF" opacity="1.000000" stroke="none" 
	d="
M87.281273,26.230560 
	C93.860374,20.202866 106.874794,25.338110 107.453880,34.233887 
	C107.668655,37.533192 106.466019,41.332447 104.800148,44.275639 
	C97.740341,56.748615 90.261223,68.984200 82.939873,81.309227 
	C79.668045,86.817139 70.381660,89.178780 64.750572,85.926056 
	C59.635201,82.971252 58.311703,75.306084 61.999191,68.993912 
	C70.291801,54.798771 78.670631,40.653996 87.281273,26.230560 
z"/>
<path fill="#201CFF" opacity="1.000000" stroke="none" 
	d="
M60.992287,36.855392 
	C57.816910,46.946228 55.383049,49.022560 45.620968,48.476933 
	C41.281147,48.234367 37.431114,45.973541 36.507439,40.995892 
	C35.574429,35.967987 34.634960,30.538685 38.944328,26.775970 
	C42.997650,23.236826 48.196133,22.949907 53.253220,25.001549 
	C58.332207,27.062080 60.510456,31.211889 60.992287,36.855392 
z"/>
<path fill="#B0B0B0" opacity="1.000000" stroke="none" 
	d="
M178.000092,30.998594 
	C166.213684,30.998594 154.927307,30.998594 143.640930,30.998594 
	C143.641327,30.772438 143.641739,30.546282 143.642151,30.320126 
	C169.534668,30.320126 195.427185,30.320126 221.319702,30.320126 
	C221.323242,30.546282 221.326782,30.772438 221.330338,30.998594 
	C207.053589,30.998594 192.776855,30.998594 178.000092,30.998594 
z"/>
<path fill="#545454" opacity="1.000000" stroke="none" 
	d="
M131.999420,82.680740 
	C131.999420,84.445122 131.999420,85.753693 131.999420,87.062263 
	C131.774109,87.057961 131.548798,87.053650 131.323486,87.049339 
	C131.323486,68.671585 131.323486,50.293839 131.323486,31.916088 
	C131.548798,31.913038 131.774109,31.909988 131.999420,31.906939 
	C131.999420,48.679600 131.999420,65.452263 131.999420,82.680740 
z"/>
<path fill="#333333" opacity="1.000000" stroke="none" 
	d="
M138.000610,52.000256 
	C138.000610,45.035069 138.000610,38.569805 138.000610,32.104546 
	C138.227310,32.105675 138.453995,32.106804 138.680695,32.107929 
	C138.680695,50.367561 138.680695,68.627190 138.680695,86.886826 
	C138.453995,86.891304 138.227310,86.895782 138.000610,86.900261 
	C138.000610,75.433571 138.000610,63.966877 138.000610,52.000256 
z"/>
<path fill="#838383" opacity="1.000000" stroke="none" 
	d="
M167.001175,42.400696 
	C167.001343,57.604988 167.001343,72.358124 167.001343,87.111252 
	C166.780838,87.111145 166.560318,87.111038 166.339813,87.110931 
	C166.339813,70.537376 166.339813,53.963825 166.339813,37.390270 
	C166.560211,37.364910 166.780609,37.339554 167.001007,37.314194 
	C167.001007,38.859306 167.001007,40.404419 167.001175,42.400696 
z"/>
<path fill="#B4B4B4" opacity="1.000000" stroke="none" 
	d="
M198.999100,55.001373 
	C198.999542,66.124825 198.999542,76.748741 198.999542,87.372658 
	C198.665817,87.372734 198.332077,87.372803 197.998352,87.372879 
	C197.998352,70.629318 197.998352,53.885754 197.998352,37.142189 
	C198.331787,37.124603 198.665222,37.107014 198.998657,37.089428 
	C198.998657,42.893562 198.998657,48.697701 198.999100,55.001373 
z"/>
<path fill="#FFFFFF" opacity="1.000000" stroke="none" 
	d="
M158.000259,67.999222 
	C158.000259,58.882851 158.000259,50.266304 158.000259,41.649757 
	C158.226608,41.650082 158.452942,41.650410 158.679291,41.650734 
	C158.679291,56.548012 158.679291,71.445290 158.679291,86.342567 
	C158.452942,86.350868 158.226608,86.359161 158.000259,86.367455 
	C158.000259,80.411316 158.000259,74.455177 158.000259,67.999222 
z"/>
</svg>